# xmcd CD database file
# Copyright (C) 1997 Ti Kan
# 
# Track frame offsets:
#     183
#     15820
#     25718
#     43885
#     60733
#     76773
#     87105
#     102683
#     123105
#     137158
#     155793
# 
# Disc length: 2164 seconds
# 
# Revision: 1
# Processed by: cddbd v1.4b41PL1 Copyright (c) Steve Scherf et al.
# Submitted via: DiscPlay 4.0.4
# 
DISCID=8208720b
DTITLE=The Rankin Family - Fare Thee Well Love
DYEAR=1900
DGENRE=
TTITLE0=Orangedale Whistle
TTITLE1=An T-Each Ruadh (The Red Horse)
TTITLE2=Fair and Tender Ladies
TTITLE3=Fiddle Medley
TTITLE4=Fisherman's Son
TTITLE5=Tell My Ma
TTITLE6=You Left a Flower
TTITLE7=Fare Thee Well Love
TTITLE8=Gillis Mountain
TTITLE9=Gaelic Medley
TTITLE10=Tripper's Jig
EXTD=
EXTT0=
EXTT1=
EXTT2=
EXTT3=
EXTT4=
EXTT5=
EXTT6=
EXTT7=
EXTT8=
EXTT9=
EXTT10=
PLAYORDER=
